<svg width="120" height="40" viewBox="0 0 120 40" fill="none" xmlns="http://www.w3.org/2000/svg">
  <path d="M15.5 8C11.3579 8 8 11.3579 8 15.5C8 19.6421 11.3579 23 15.5 23H24.5C28.6421 23 32 19.6421 32 15.5C32 11.3579 28.6421 8 24.5 8H15.5Z" fill="#3B82F6"/>
  <path d="M40 15.5C40 11.3579 43.3579 8 47.5 8H56.5C60.6421 8 64 11.3579 64 15.5C64 19.6421 60.6421 23 56.5 23H47.5C43.3579 23 40 19.6421 40 15.5Z" fill="#10B981"/>
  <path d="M72 15.5C72 11.3579 75.3579 8 79.5 8H88.5C92.6421 8 96 11.3579 96 15.5C96 19.6421 92.6421 23 88.5 23H79.5C75.3579 23 72 19.6421 72 15.5Z" fill="#F59E0B"/>
  <text x="10" y="35" font-family="Arial" font-weight="bold" font-size="16" fill="#111827">AUREX</text>
</svg>